<?xml version="1.0" ?><svg id="Слой_1" style="enable-background:new 0 0 128 128;" version="1.1" viewBox="0 0 128 128" xml:space="preserve" xmlns="http://www.w3.org/2000/svg" xmlns:xlink="http://www.w3.org/1999/xlink"><style type="text/css">
	.st0{fill:#5385CD;}
</style><g id="XMLID_5_"><path class="st0" d="M61.1,20c17.6,0,32,14.4,32,32s-14.4,32-32,32s-32-14.4-32-32S43.5,20,61.1,20L61.1,20z    M61.1,16c-19.9,0-36,16.1-36,36s16.1,36,36,36s36-16.1,36-36S81,16,61.1,16L61.1,16z" id="XMLID_12_"/><path class="st0" d="M61.1,44c4.4,0,8,3.6,8,8s-3.6,8-8,8s-8-3.6-8-8S56.7,44,61.1,44L61.1,44z M61.1,40   c-6.6,0-12,5.4-12,12s5.4,12,12,12s12-5.4,12-12S67.7,40,61.1,40L61.1,40z" id="XMLID_9_"/><path class="st0" d="M37.2,52h4c0-11,8.8-20,19.8-20v-4C47.8,28,37.2,38.8,37.2,52z" id="XMLID_7_"/><path class="st0" d="M102.9,75.3c0,2.3-1.9,4.2-4.2,4.2c-0.2,0-0.4,0-0.6,0c-2.8,3.7-6.1,7-9.9,9.7l6.7,13.4   c1.1,2.2,1,4.5-0.1,6.4c-1.2,1.9-3.2,3-5.7,3h-56c-2.5,0-4.6-1.1-5.7-3c-1.1-1.9-1.2-4.2-0.1-6.4L34,89.2l1.7-3.4l1,0.5l2.6,1.3   l-0.2,0.4l-1.8,3.6l-6.4,13c-1,2,0,3.6,2.2,3.6h56c2.2,0,3.2-1.6,2.2-3.6l-6.4-13l-1.8-3.6l-0.2-0.4l2.6-1.3   c3.6-2.5,6.7-5.6,9.3-9.2c-0.2-0.6-0.4-1.2-0.4-1.8c0-2.3,1.9-4.2,4.2-4.2C101,71.1,102.9,73,102.9,75.3z" id="XMLID_6_"/></g></svg>