<svg version="1.2" xmlns="http://www.w3.org/2000/svg" viewBox="0 0 35 35" width="30" height="30"><style>.s0{fill:#95e1d3}</style><path class="s0" d="m17 34c-8.8 0-16-7.2-16-16c0-8.8 7.2-16 16-16c8.8 0 16 7.2 16 16c0 8.8-7.2 16-16 16zm0-29c-7.2 0-13 5.8-13 13c0 7.2 5.8 13 13 13c7.2 0 13-5.8 13-13c0-7.2-5.8-13-13-13zm0 22.5c-5.2 0-9.5-4.3-9.5-9.5c0-5.2 4.3-9.5 9.5-9.5c5.2 0 9.5 4.3 9.5 9.5c0 5.2-4.3 9.5-9.5 9.5zm0-16c-3.6 0-6.5 2.9-6.5 6.5c0 3.6 2.9 6.5 6.5 6.5c3.6 0 6.5-2.9 6.5-6.5c0-3.6-2.9-6.5-6.5-6.5zm0 9.5c-1.7 0-3-1.3-3-3c0-1.7 1.3-3 3-3c1.7 0 3 1.3 3 3c0 1.7-1.3 3-3 3z" /></svg>