<svg version="1.2" xmlns="http://www.w3.org/2000/svg" viewBox="0 0 32 35" width="29" height="32"><style>.s0{fill:#95e1d3}</style><path class="s0" d="m28.5 18.5h-3c-0.8 0-1.5-0.7-1.5-1.5v-6c0-0.8 0.7-1.5 1.5-1.5h3c0.8 0 1.5 0.7 1.5 1.5v6c0 0.8-0.7 1.5-1.5 1.5zm-3-15c0-0.8 0.7-1.5 1.5-1.5c0.8 0 1.5 0.7 1.5 1.5v4.5h-3zm-8 23h-3c-0.8 0-1.5-0.7-1.5-1.5v-6c0-0.8 0.7-1.5 1.5-1.5h3c0.8 0 1.5 0.7 1.5 1.5v6c0 0.8-0.7 1.5-1.5 1.5zm-3-23c0-0.8 0.7-1.5 1.5-1.5c0.8 0 1.5 0.7 1.5 1.5v12.5h-3zm-8 19h-3c-0.8 0-1.5-0.7-1.5-1.5v-6c0-0.8 0.7-1.5 1.5-1.5h3c0.8 0 1.5 0.7 1.5 1.5v6c0 0.8-0.7 1.5-1.5 1.5zm-3-19c0-0.8 0.7-1.5 1.5-1.5c0.8 0 1.5 0.7 1.5 1.5v8.5h-3zm3 29c0 0.8-0.7 1.5-1.5 1.5c-0.8 0-1.5-0.7-1.5-1.5v-8.5h3zm11 0c0 0.8-0.7 1.5-1.5 1.5c-0.8 0-1.5-0.7-1.5-1.5v-4.5h3zm11 0c0 0.8-0.7 1.5-1.5 1.5c-0.8 0-1.5-0.7-1.5-1.5v-12.5h3z" /></svg>