<svg version="1.2" xmlns="http://www.w3.org/2000/svg" viewBox="0 0 23 29" width="23" height="29"><style>.s0{fill:#000000}</style><path class="s0" d="m10.1 17.9q-0.4 1.2-0.7 2.5c-0.2 0.9-0.4 1.7-0.7 2.5c-0.5 1.3-1.2 2.5-2 3.5c-0.6 0.7-0.5 0.4-0.7 0.4c-0.1-0.1-0.1-0.2-0.1-0.4c-0.2-1-0.1-2.2 0-3.3c0-1.3 0.3-2.4 0.6-3.5c0.4-2 0.9-4.1 1.4-6.1c0-0.2 0.1-0.4 0.1-0.5c-0.2-0.6-0.4-1.1-0.5-1.7q-0.1-1 0.2-1.9c0.3-1.1 0.9-2 1.9-2.4c0.6-0.2 1.3-0.1 1.7 0.2q0.7 0.3 0.9 1.2c0.1 0.6 0 1.4-0.1 1.9c-0.3 1.2-0.6 2.1-0.9 3.3c-0.2 0.6-0.4 1.2-0.2 1.8c0.1 0.6 0.4 1 0.8 1.3c0.5 0.3 1 0.5 1.6 0.4c1.3 0 2.1-0.8 2.7-1.5c0.9-1.2 1.5-2.8 1.7-4.7c0-0.6 0.1-1.3 0-2c0-1.3-0.4-2.3-1.1-3.1c-0.6-0.8-1.4-1.4-2.5-1.8c-1-0.3-2.5-0.4-3.7-0.2c-2.4 0.4-4 1.7-5 3.5c-0.5 1-0.8 2.1-0.8 3.5c0 1 0.3 1.8 0.7 2.5c0.1 0.2 0.3 0.3 0.4 0.6c0.2 0.3 0 0.8-0.1 1.1c-0.1 0.4-0.1 1-0.6 1c-0.2 0-0.5-0.1-0.6-0.2c-1.3-0.7-2.1-2-2.5-3.7c-0.2-1.1-0.2-2.3 0-3.3c0.2-0.9 0.6-1.8 1-2.6c0.8-1.5 2-2.7 3.4-3.5c1.2-0.7 2.4-1.1 3.9-1.4q0.8-0.1 1.7-0.1c1.6-0.1 3.1 0.3 4.3 0.8c1.2 0.6 2.1 1.3 3 2.2c0.8 0.9 1.4 1.9 1.8 3.3c0.2 0.7 0.4 1.4 0.4 2.3c0 0.8-0.2 1.6-0.3 2.3c-0.5 2.9-1.8 5.2-3.9 6.5c-0.4 0.3-1 0.6-1.7 0.8c-0.7 0.2-1.4 0.3-2.2 0.3c-0.8-0.1-1.5-0.3-2-0.6c-0.6-0.3-1-0.7-1.3-1.2z" /></svg>