<svg version="1.2" xmlns="http://www.w3.org/2000/svg" viewBox="0 0 28 24" width="28" height="24"><style>.s0{fill:#000000}</style><path class="s0" d="m18.5 1.6c2 0 3.1 0.7 4.2 1.6c0.8 0 2-0.5 2.7-0.9q0.3-0.1 0.6-0.3c-0.4 1-0.9 1.8-1.7 2.4c-0.2 0.2-0.3 0.4-0.6 0.5q0 0 0 0c1.2 0 2.1-0.6 3-0.8q0 0 0 0c-0.5 0.7-1.1 1.5-1.8 2q-0.4 0.3-0.8 0.7c0 1.2 0 2.3-0.2 3.3c-1.4 5.9-4.8 9.9-10.3 11.7c-2 0.6-5.2 0.8-7.5 0.3c-1.1-0.3-2.1-0.6-3.1-1q-0.7-0.4-1.4-0.8q-0.3-0.2-0.5-0.3c0.5 0 1.1 0.2 1.7 0.1c0.5-0.1 1-0.1 1.5-0.2c1.2-0.3 2.2-0.6 3.1-1.1c0.5-0.3 1.1-0.6 1.5-1c-0.6 0-1.2-0.1-1.6-0.2c-1.7-0.6-2.7-1.7-3.3-3.4c0.5 0.1 2 0.2 2.3-0.1c-0.6 0-1.3-0.4-1.7-0.7c-1.4-0.9-2.5-2.3-2.5-4.5q0.3 0.1 0.6 0.3c0.3 0.1 0.6 0.2 1.1 0.3c0.1 0 0.5 0.1 0.7 0q0 0-0.1 0c-0.2-0.3-0.7-0.5-0.9-0.8c-0.9-1.1-1.7-2.8-1.2-4.8c0.1-0.5 0.3-0.9 0.6-1.3q0 0 0 0c0.1 0.2 0.3 0.3 0.5 0.5c0.4 0.6 1 1.1 1.5 1.5c1.9 1.5 3.7 2.4 6.5 3.1c0.7 0.2 1.5 0.3 2.3 0.3c-0.2-0.7-0.2-1.8 0-2.4c0.5-1.7 1.5-2.9 3-3.6q0.5-0.2 1.2-0.3q0.3-0.1 0.6-0.1z" /></svg>