<svg version="1.2" xmlns="http://www.w3.org/2000/svg" viewBox="0 0 15 20" width="15" height="20">
	<title>pinterest</title>
	<style>
		.s0 { fill: #95e1d3 } 
	</style>
	<path id="pinterest" class="s0" d="m6.8 12.4q-0.2 0.8-0.4 1.6c-0.1 0.6-0.2 1.1-0.4 1.6c-0.3 0.8-0.7 1.5-1.3 2.2c-0.3 0.4-0.3 0.2-0.4 0.2c-0.1 0-0.1-0.1-0.1-0.2c-0.1-0.7 0-1.4 0-2.1c0.1-0.8 0.2-1.5 0.4-2.2c0.3-1.3 0.6-2.5 0.9-3.8c0-0.1 0.1-0.3 0-0.3c-0.1-0.4-0.2-0.7-0.2-1.1q-0.1-0.6 0.1-1.2c0.1-0.6 0.5-1.2 1.2-1.4c0.3-0.2 0.8-0.1 1 0q0.4 0.3 0.6 0.8c0.1 0.4 0 0.9-0.1 1.2c-0.1 0.8-0.4 1.3-0.6 2.1c-0.1 0.3-0.2 0.7-0.1 1.1q0.2 0.5 0.6 0.8c0.2 0.2 0.5 0.3 1 0.3c0.7 0 1.3-0.5 1.6-1c0.6-0.7 0.9-1.7 1.1-2.9c0-0.4 0-0.9 0-1.3q-0.1-1.2-0.7-1.9c-0.4-0.5-0.9-0.9-1.6-1.1c-0.6-0.2-1.5-0.3-2.3-0.1c-1.4 0.2-2.5 1-3.1 2.2c-0.3 0.6-0.5 1.2-0.5 2.1c0 0.6 0.2 1.2 0.4 1.6c0.1 0.1 0.2 0.2 0.3 0.3c0.1 0.2 0 0.5-0.1 0.8c0 0.2 0 0.6-0.3 0.6c-0.2 0-0.3-0.1-0.4-0.2c-0.9-0.4-1.4-1.2-1.6-2.3c-0.1-0.6-0.1-1.4 0-2c0.2-0.6 0.4-1.2 0.6-1.6c0.5-1 1.3-1.7 2.2-2.3c0.7-0.4 1.5-0.7 2.4-0.8q0.5-0.1 1-0.1c1.1 0 2 0.2 2.7 0.5q1.2 0.5 1.9 1.4c0.5 0.5 0.9 1.2 1.1 2c0.2 0.5 0.3 0.9 0.3 1.5c0 0.5-0.1 1-0.2 1.4c-0.3 1.8-1.1 3.3-2.4 4.1q-0.5 0.3-1.1 0.5c-0.4 0.1-0.9 0.2-1.4 0.2q-0.7-0.1-1.2-0.4c-0.4-0.2-0.7-0.4-0.9-0.8z" />
</svg>